<svg fill="#000000" viewBox="0 0 24 24" id="place-disable" data-name="Flat Color" xmlns="http://www.w3.org/2000/svg" class="icon flat-color" stroke="#000000" stroke-width="0.24000000000000005"><g id="SVGRepo_bgCarrier" stroke-width="0"></g><g id="SVGRepo_tracerCarrier" stroke-linecap="round" stroke-linejoin="round"></g><g id="SVGRepo_iconCarrier"><path id="primary" d="M12,2A7,7,0,0,0,5,9c0,5.32,6,12.35,6.24,12.65a1,1,0,0,0,1.52,0C13,21.35,19,14.32,19,9A7,7,0,0,0,12,2Z" style="fill: #c2eabd;"></path><path id="secondary" d="M20,19a1,1,0,0,1-.66-.25l-16-14a1,1,0,1,1,1.32-1.5l16,14a1,1,0,0,1,.09,1.41A1,1,0,0,1,20,19Z" style="fill: #000000;"></path></g></svg>